<svg width="256" height="256" viewBox="0 0 256 256" fill="none" xmlns="http://www.w3.org/2000/svg">
<g clip-path="url(#clip0)">
<rect width="256" height="256" rx="20" fill="#C1D9FA"/>
<path d="M72 39.716V24.284H77.3453C78.2043 24.284 79.0077 24.3708 79.7554 24.5444C80.5031 24.7022 81.1554 24.9783 81.7122 25.3728C82.269 25.7515 82.7064 26.2643 83.0246 26.9112C83.3587 27.5424 83.5257 28.3235 83.5257 29.2544C83.5257 30.1538 83.3587 30.9349 83.0246 31.5976C82.7064 32.2604 82.269 32.8047 81.7122 33.2308C81.1554 33.6568 80.5111 33.9724 79.7793 34.1775C79.0475 34.3826 78.268 34.4852 77.4407 34.4852H75.5078V39.716H72ZM75.5078 31.716H77.2259C79.135 31.716 80.0895 30.8955 80.0895 29.2544C80.0895 28.4497 79.8349 27.8817 79.3259 27.5503C78.8168 27.2189 78.085 27.0533 77.1305 27.0533H75.5078V31.716Z" fill="#2E56B8"/>
<path d="M89.0754 31.9053L88.6936 33.3254H92.0105L91.6526 31.9053C91.4298 31.1322 91.2151 30.3116 91.0083 29.4438C90.8014 28.5759 90.5946 27.7396 90.3878 26.9349H90.2924C90.1015 27.7554 89.9026 28.5996 89.6958 29.4675C89.5049 30.3195 89.2981 31.1322 89.0754 31.9053ZM83.4438 39.716L88.3118 24.284H92.5355L97.4035 39.716H93.6809L92.7264 36.0473H87.9777L87.0232 39.716H83.4438Z" fill="#2E56B8"/>
<path d="M101.754 39.716V34.2249L97.0534 24.284H100.824L102.208 27.8343C102.431 28.4181 102.637 28.9862 102.828 29.5385C103.035 30.075 103.25 30.643 103.473 31.2426H103.568C103.791 30.643 104.005 30.075 104.212 29.5385C104.435 28.9862 104.658 28.4181 104.88 27.8343L106.288 24.284H109.963L105.262 34.2249V39.716H101.754Z" fill="#2E56B8"/>
<path d="M112.017 39.716V24.284H115.859L118.364 31.1479C118.523 31.6055 118.674 32.0789 118.818 32.568C118.961 33.0414 119.112 33.5148 119.271 33.9882H119.366C119.526 33.5148 119.669 33.0414 119.796 32.568C119.939 32.0789 120.09 31.6055 120.249 31.1479L122.707 24.284H126.525V39.716H123.328V34.0592C123.328 33.6805 123.344 33.2623 123.375 32.8047C123.407 32.3471 123.447 31.8895 123.495 31.432C123.542 30.9586 123.59 30.501 123.638 30.0592C123.686 29.6016 123.733 29.1834 123.781 28.8047H123.686L122.421 32.4734L120.202 38.3669H118.269L116.05 32.4734L114.809 28.8047H114.713C114.761 29.1834 114.809 29.6016 114.856 30.0592C114.904 30.501 114.952 30.9586 115 31.432C115.047 31.8895 115.087 32.3471 115.119 32.8047C115.151 33.2623 115.167 33.6805 115.167 34.0592V39.716H112.017Z" fill="#2E56B8"/>
<path d="M130.591 39.716V24.284H140.327V27.2189H134.099V30.3195H139.397V33.2308H134.099V36.7811H140.566V39.716H130.591Z" fill="#2E56B8"/>
<path d="M144.062 39.716V24.284H147.665L151.722 31.9527L153.249 35.3609H153.345C153.265 34.5404 153.17 33.6252 153.058 32.6154C152.963 31.6055 152.915 30.643 152.915 29.7278V24.284H156.256V39.716H152.653L148.596 32.0237L147.069 28.6627H146.973C147.053 29.5148 147.14 30.43 147.236 31.4083C147.347 32.3866 147.403 33.3333 147.403 34.2485V39.716H144.062Z" fill="#2E56B8"/>
<path d="M163.36 39.716V27.2189H159.089V24.284H171.163V27.2189H166.892V39.716H163.36Z" fill="#2E56B8"/>
<path d="M178.13 40C177.112 40 176.093 39.8185 175.075 39.4556C174.073 39.0769 173.174 38.5168 172.379 37.7751L174.383 35.3846C174.94 35.858 175.553 36.2446 176.221 36.5444C176.905 36.8442 177.573 36.9941 178.225 36.9941C178.957 36.9941 179.498 36.86 179.848 36.5917C180.214 36.3235 180.397 35.9606 180.397 35.503C180.397 35.2663 180.341 35.0611 180.23 34.8876C180.134 34.714 179.983 34.5641 179.776 34.4379C179.585 34.2959 179.347 34.1696 179.06 34.0592C178.79 33.9329 178.488 33.7988 178.154 33.6568L176.125 32.8047C175.728 32.6469 175.338 32.4418 174.956 32.1893C174.59 31.9369 174.256 31.645 173.954 31.3136C173.667 30.9665 173.437 30.572 173.262 30.1302C173.087 29.6726 172.999 29.1598 172.999 28.5917C172.999 27.9606 173.134 27.3688 173.405 26.8166C173.675 26.2485 174.057 25.7594 174.55 25.3491C175.044 24.9231 175.624 24.5917 176.292 24.355C176.976 24.1183 177.724 24 178.535 24C179.442 24 180.333 24.1736 181.208 24.5207C182.099 24.8679 182.878 25.3728 183.547 26.0355L181.757 28.2367C181.248 27.8422 180.739 27.5424 180.23 27.3373C179.721 27.1164 179.156 27.0059 178.535 27.0059C177.931 27.0059 177.446 27.1322 177.08 27.3846C176.73 27.6213 176.555 27.9606 176.555 28.4024C176.555 28.6391 176.611 28.8442 176.722 29.0178C176.849 29.1755 177.016 29.3254 177.223 29.4675C177.446 29.5937 177.7 29.7199 177.987 29.8462C178.273 29.9566 178.583 30.0828 178.917 30.2249L180.922 31.0296C181.876 31.4083 182.624 31.929 183.165 32.5917C183.722 33.2544 184 34.1302 184 35.2189C184 35.8659 183.865 36.4813 183.594 37.0651C183.34 37.6331 182.958 38.1381 182.449 38.5799C181.956 39.0059 181.343 39.3531 180.611 39.6213C179.88 39.8738 179.052 40 178.13 40Z" fill="#2E56B8"/>
<path d="M162.251 98.5923H93.7492C90.574 98.5923 88 101.149 88 104.303V155.29C88 158.443 90.574 161 93.7492 161H162.251C165.426 161 168 158.443 168 155.29V104.303C168 101.149 165.426 98.5923 162.251 98.5923Z" fill="#636E73"/>
<path d="M133.93 123.821C133.93 120.718 131.387 118.202 128.259 118.202C125.131 118.202 122.601 120.718 122.601 123.821C122.526 124.844 122.814 125.864 123.437 126.777C124.06 127.69 124.995 128.466 126.149 129.025L125.093 140.755H131.451L130.408 129.025C131.555 128.462 132.484 127.686 133.102 126.773C133.72 125.86 134.006 124.842 133.93 123.821Z" fill="#17282F"/>
<path d="M157.347 95.6911H149.417V87.1714C149.417 81.7889 147.265 76.6268 143.433 72.8207C139.601 69.0147 134.404 66.8764 128.985 66.8764C123.565 66.8764 118.368 69.0147 114.536 72.8207C110.704 76.6268 108.552 81.7889 108.552 87.1714V95.6911H100.622V87.1714C100.622 79.6999 103.61 72.5344 108.929 67.2512C114.248 61.9681 121.462 59 128.985 59C136.507 59 143.721 61.9681 149.04 67.2512C154.359 72.5344 157.347 79.6999 157.347 87.1714V95.6911Z" fill="#636E73"/>
<path d="M92.1057 196V184.192H95.4717C96.1317 184.192 96.7317 184.252 97.2717 184.372C97.8237 184.492 98.2917 184.69 98.6757 184.966C99.0597 185.23 99.3597 185.584 99.5757 186.028C99.7917 186.472 99.8997 187.018 99.8997 187.666C99.8997 188.29 99.7917 188.83 99.5757 189.286C99.3717 189.742 99.0777 190.12 98.6937 190.42C98.3097 190.72 97.8477 190.948 97.3077 191.104C96.7797 191.248 96.1917 191.32 95.5437 191.32H93.5997V196H92.1057ZM93.5997 190.096H95.3637C96.3957 190.096 97.1577 189.904 97.6497 189.52C98.1537 189.124 98.4057 188.506 98.4057 187.666C98.4057 186.814 98.1417 186.226 97.6137 185.902C97.0977 185.566 96.3237 185.398 95.2917 185.398H93.5997V190.096ZM103.8 196.216C103.068 196.216 102.456 196 101.964 195.568C101.484 195.136 101.244 194.524 101.244 193.732C101.244 192.772 101.67 192.04 102.522 191.536C103.374 191.02 104.736 190.66 106.608 190.456C106.608 190.18 106.578 189.91 106.518 189.646C106.47 189.382 106.38 189.148 106.248 188.944C106.116 188.74 105.93 188.578 105.69 188.458C105.462 188.326 105.168 188.26 104.808 188.26C104.304 188.26 103.83 188.356 103.386 188.548C102.942 188.74 102.546 188.956 102.198 189.196L101.622 188.17C102.03 187.906 102.528 187.654 103.116 187.414C103.704 187.162 104.352 187.036 105.06 187.036C106.128 187.036 106.902 187.366 107.382 188.026C107.862 188.674 108.102 189.544 108.102 190.636V196H106.878L106.752 194.956H106.698C106.278 195.304 105.828 195.604 105.348 195.856C104.868 196.096 104.352 196.216 103.8 196.216ZM104.232 195.028C104.652 195.028 105.048 194.932 105.42 194.74C105.792 194.536 106.188 194.242 106.608 193.858V191.428C105.876 191.524 105.258 191.638 104.754 191.77C104.262 191.902 103.86 192.058 103.548 192.238C103.248 192.418 103.026 192.628 102.882 192.868C102.75 193.096 102.684 193.348 102.684 193.624C102.684 194.128 102.834 194.488 103.134 194.704C103.434 194.92 103.8 195.028 104.232 195.028ZM113.54 196.216C112.916 196.216 112.322 196.102 111.758 195.874C111.194 195.646 110.702 195.358 110.282 195.01L111.02 194.02C111.404 194.332 111.794 194.584 112.19 194.776C112.598 194.968 113.066 195.064 113.594 195.064C114.17 195.064 114.602 194.932 114.89 194.668C115.178 194.404 115.322 194.08 115.322 193.696C115.322 193.468 115.262 193.27 115.142 193.102C115.022 192.934 114.866 192.79 114.674 192.67C114.494 192.538 114.284 192.424 114.044 192.328C113.804 192.232 113.564 192.136 113.324 192.04C113.012 191.932 112.7 191.812 112.388 191.68C112.076 191.536 111.794 191.368 111.542 191.176C111.302 190.972 111.104 190.738 110.948 190.474C110.792 190.21 110.714 189.892 110.714 189.52C110.714 189.172 110.78 188.848 110.912 188.548C111.056 188.236 111.254 187.972 111.506 187.756C111.77 187.528 112.088 187.354 112.46 187.234C112.832 187.102 113.252 187.036 113.72 187.036C114.272 187.036 114.776 187.132 115.232 187.324C115.7 187.516 116.102 187.75 116.438 188.026L115.736 188.962C115.436 188.734 115.124 188.548 114.8 188.404C114.476 188.26 114.122 188.188 113.738 188.188C113.186 188.188 112.778 188.314 112.514 188.566C112.262 188.818 112.136 189.112 112.136 189.448C112.136 189.652 112.19 189.832 112.298 189.988C112.406 190.132 112.55 190.264 112.73 190.384C112.91 190.492 113.114 190.594 113.342 190.69C113.582 190.774 113.828 190.864 114.08 190.96C114.392 191.08 114.704 191.206 115.016 191.338C115.34 191.47 115.628 191.638 115.88 191.842C116.132 192.034 116.336 192.274 116.492 192.562C116.66 192.85 116.744 193.198 116.744 193.606C116.744 193.966 116.672 194.302 116.528 194.614C116.396 194.926 116.192 195.202 115.916 195.442C115.652 195.682 115.316 195.868 114.908 196C114.512 196.144 114.056 196.216 113.54 196.216ZM121.481 196.216C120.857 196.216 120.263 196.102 119.699 195.874C119.135 195.646 118.643 195.358 118.223 195.01L118.961 194.02C119.345 194.332 119.735 194.584 120.131 194.776C120.539 194.968 121.007 195.064 121.535 195.064C122.111 195.064 122.543 194.932 122.831 194.668C123.119 194.404 123.263 194.08 123.263 193.696C123.263 193.468 123.203 193.27 123.083 193.102C122.963 192.934 122.807 192.79 122.615 192.67C122.435 192.538 122.225 192.424 121.985 192.328C121.745 192.232 121.505 192.136 121.265 192.04C120.953 191.932 120.641 191.812 120.329 191.68C120.017 191.536 119.735 191.368 119.483 191.176C119.243 190.972 119.045 190.738 118.889 190.474C118.733 190.21 118.655 189.892 118.655 189.52C118.655 189.172 118.721 188.848 118.853 188.548C118.997 188.236 119.195 187.972 119.447 187.756C119.711 187.528 120.029 187.354 120.401 187.234C120.773 187.102 121.193 187.036 121.661 187.036C122.213 187.036 122.717 187.132 123.173 187.324C123.641 187.516 124.043 187.75 124.379 188.026L123.677 188.962C123.377 188.734 123.065 188.548 122.741 188.404C122.417 188.26 122.063 188.188 121.679 188.188C121.127 188.188 120.719 188.314 120.455 188.566C120.203 188.818 120.077 189.112 120.077 189.448C120.077 189.652 120.131 189.832 120.239 189.988C120.347 190.132 120.491 190.264 120.671 190.384C120.851 190.492 121.055 190.594 121.283 190.69C121.523 190.774 121.769 190.864 122.021 190.96C122.333 191.08 122.645 191.206 122.957 191.338C123.281 191.47 123.569 191.638 123.821 191.842C124.073 192.034 124.277 192.274 124.433 192.562C124.601 192.85 124.685 193.198 124.685 193.606C124.685 193.966 124.613 194.302 124.469 194.614C124.337 194.926 124.133 195.202 123.857 195.442C123.593 195.682 123.257 195.868 122.849 196C122.453 196.144 121.997 196.216 121.481 196.216ZM128.522 196L126.092 187.252H127.604L128.9 192.31C128.996 192.73 129.086 193.138 129.17 193.534C129.254 193.93 129.338 194.332 129.422 194.74H129.494C129.59 194.332 129.686 193.93 129.782 193.534C129.878 193.126 129.98 192.718 130.088 192.31L131.438 187.252H132.878L134.246 192.31C134.354 192.73 134.456 193.138 134.552 193.534C134.66 193.93 134.762 194.332 134.858 194.74H134.93C135.026 194.332 135.116 193.93 135.2 193.534C135.284 193.138 135.374 192.73 135.47 192.31L136.748 187.252H138.152L135.812 196H134.012L132.752 191.302C132.644 190.882 132.542 190.468 132.446 190.06C132.362 189.652 132.266 189.226 132.158 188.782H132.086C131.99 189.226 131.894 189.658 131.798 190.078C131.702 190.486 131.594 190.9 131.474 191.32L130.25 196H128.522ZM143.788 196.216C143.248 196.216 142.732 196.114 142.24 195.91C141.76 195.706 141.334 195.412 140.962 195.028C140.59 194.632 140.29 194.152 140.062 193.588C139.846 193.012 139.738 192.364 139.738 191.644C139.738 190.912 139.846 190.264 140.062 189.7C140.29 189.124 140.59 188.638 140.962 188.242C141.334 187.846 141.76 187.546 142.24 187.342C142.732 187.138 143.248 187.036 143.788 187.036C144.328 187.036 144.838 187.138 145.318 187.342C145.81 187.546 146.242 187.846 146.614 188.242C146.986 188.638 147.28 189.124 147.496 189.7C147.724 190.264 147.838 190.912 147.838 191.644C147.838 192.364 147.724 193.012 147.496 193.588C147.28 194.152 146.986 194.632 146.614 195.028C146.242 195.412 145.81 195.706 145.318 195.91C144.838 196.114 144.328 196.216 143.788 196.216ZM143.788 194.992C144.16 194.992 144.502 194.914 144.814 194.758C145.126 194.59 145.39 194.362 145.606 194.074C145.834 193.774 146.008 193.42 146.128 193.012C146.248 192.604 146.308 192.148 146.308 191.644C146.308 191.14 146.248 190.684 146.128 190.276C146.008 189.856 145.834 189.496 145.606 189.196C145.39 188.896 145.126 188.668 144.814 188.512C144.502 188.344 144.16 188.26 143.788 188.26C143.416 188.26 143.074 188.344 142.762 188.512C142.45 188.668 142.18 188.896 141.952 189.196C141.736 189.496 141.568 189.856 141.448 190.276C141.328 190.684 141.268 191.14 141.268 191.644C141.268 192.148 141.328 192.604 141.448 193.012C141.568 193.42 141.736 193.774 141.952 194.074C142.18 194.362 142.45 194.59 142.762 194.758C143.074 194.914 143.416 194.992 143.788 194.992ZM150.541 196V187.252H151.765L151.891 188.836H151.945C152.245 188.284 152.605 187.846 153.025 187.522C153.457 187.198 153.925 187.036 154.429 187.036C154.777 187.036 155.089 187.096 155.365 187.216L155.077 188.512C154.933 188.464 154.801 188.428 154.681 188.404C154.561 188.38 154.411 188.368 154.231 188.368C153.859 188.368 153.469 188.518 153.061 188.818C152.665 189.118 152.317 189.64 152.017 190.384V196H150.541ZM159.994 196.216C158.89 196.216 158.008 195.82 157.348 195.028C156.7 194.236 156.376 193.108 156.376 191.644C156.376 190.936 156.478 190.3 156.682 189.736C156.898 189.16 157.18 188.674 157.528 188.278C157.876 187.882 158.278 187.576 158.734 187.36C159.19 187.144 159.67 187.036 160.174 187.036C160.678 187.036 161.116 187.126 161.488 187.306C161.86 187.486 162.238 187.732 162.622 188.044L162.55 186.55V183.184H164.044V196H162.82L162.694 194.974H162.64C162.292 195.31 161.89 195.604 161.434 195.856C160.99 196.096 160.51 196.216 159.994 196.216ZM160.318 194.974C160.726 194.974 161.11 194.878 161.47 194.686C161.83 194.482 162.19 194.176 162.55 193.768V189.196C162.178 188.86 161.818 188.626 161.47 188.494C161.134 188.35 160.786 188.278 160.426 188.278C160.078 188.278 159.748 188.362 159.436 188.53C159.136 188.686 158.872 188.914 158.644 189.214C158.416 189.502 158.236 189.85 158.104 190.258C157.972 190.666 157.906 191.122 157.906 191.626C157.906 192.682 158.116 193.504 158.536 194.092C158.956 194.68 159.55 194.974 160.318 194.974Z" fill="#2E56B8"/>
<rect x="36" y="204" width="184" height="28" rx="2" fill="white"/>
<ellipse cx="46.1" cy="218.6" rx="4" ry="4" fill="#17282F"/>
<ellipse cx="60.1" cy="218.6" rx="4" ry="4" fill="#17282F"/>
<ellipse cx="74.1" cy="218.6" rx="4" ry="4" fill="#17282F"/>
<ellipse cx="88.1" cy="218.6" rx="4" ry="4" fill="#17282F"/>
<ellipse cx="102.1" cy="218.6" rx="4" ry="4" fill="#17282F"/>
<ellipse cx="116.1" cy="218.6" rx="4" ry="4" fill="#17282F"/>
<ellipse cx="130.1" cy="218.6" rx="4" ry="4" fill="#17282F"/>
<ellipse cx="144.1" cy="218.6" rx="4" ry="4" fill="#17282F"/>
</g>
<defs>
<clipPath id="clip0">
<rect width="256" height="256" rx="20" fill="white"/>
</clipPath>
</defs>
</svg>
